[Header]
FileType HTR
DataType HTRS
FileVersion 1
NumSegments 22
NumFrames 4
DataFrameRate 24
EulerRotationOrder ZYX
CalibrationUnits mm
RotationUnits Degrees
GlobalAxisofGravity Y
BoneLengthAxis Y
ScaleFactor 1.0
[SegmentNames&Hierarchy]
reference	GLOBAL
Hips	reference
Spine	Hips
Spine1	Spine
Neck	Spine1
Head	Neck
LeftShoulder	Spine1
LeftArm	LeftShoulder
LeftForeArm	LeftArm
LeftHand	LeftForeArm
RightShoulder	Spine1
RightArm	RightShoulder
RightForeArm	RightArm
RightHand	RightForeArm
LeftUpLeg	Hips
LeftLeg	LeftUpLeg
LeftFoot	LeftLeg
LeftToeBase	LeftFoot
RightUpLeg	Hips
RightLeg	RightUpLeg
RightFoot	RightLeg
RightToeBase	RightFoot
[BasePosition]
reference	0	0	0	0	0	0	1
Hips	0	0	0	0	0	0	1
Spine	0	0	0	0	-0	90	1
Spine1	0	0	0	0	0	0	1
Neck	0	0	0	-7.352327771	-7.352327771	90	1
Head	0	0	0	0	-0	90	1
LeftShoulder	0	0	0	0	0	0	1
LeftArm	0	0	0	0	0	0	1
LeftForeArm	0	0	0	0	0	0	1
LeftHand	0	0	0	0	0	0	1
RightShoulder	0	0	0	0	-0	180	1
RightArm	0	0	0	0	-0	180	1
RightForeArm	0	0	0	0	-0	180	1
RightHand	0	0	0	0	-0	180	1
LeftUpLeg	0	0	0	0	-0	-90	1
LeftLeg	0	0	0	0	-0	-90	1
LeftFoot	0	0	0	66.57146043	-66.57146043	-90	1
LeftToeBase	0	0	0	0	-90	0	1
RightUpLeg	0	0	0	0	-0	-90	1
RightLeg	0	0	0	0	-0	-90	1
RightFoot	0	0	0	66.57146043	-66.57146043	-90	1
RightToeBase	0	0	0	0	-90	0	1
[reference]
77	0	0	0	0	-0	0	1.0
78	0	0	0	0	-0	0	1.0
79	0	0	0	0	-0	0	1.0
80	0	0	0	0	-0	0	1.0
[Hips]
77	2.293195963	8.276435852	-10.20679855	-0.3396289945	-197.0532837	1.922666788	1.0
78	2.301034212	8.41048336	-10.62578392	-2.934623003	-196.0759583	0.3793312013	1.0
79	2.305971622	8.425680161	-10.9724102	-2.469833374	-196.3117371	0.2364807129	1.0
80	2.307425737	8.429933548	-11.27663422	-0.6217013001	-197.2028046	-0.1242571995	1.0
[Spine]
77	0	0.7457100153	0	-8.80973053	5.356801033	-88.04444885	1.0
78	0	0.7457100153	0	-6.107656479	6.461296082	-87.06786346	1.0
79	0	0.7457100153	0	-8.050271988	6.342108727	-86.71309662	1.0
80	0	0.7457100153	0	-10.42315674	4.376423836	-85.61769867	1.0
[Spine1]
77	0	2.140589952	0	9.483287811	4.992249966	2.593129635	1.0
78	0	2.140589952	0	9.399998665	6.561149597	-3.298073769	1.0
79	0	2.140589952	0	8.297599792	1.688708782	-3.171557426	1.0
80	0	2.140589952	0	9.230160713	1.190697074	-3.272958517	1.0
[Neck]
77	0	2.32246995	0	-4.006827831	18.81156731	-88.29392242	1.0
78	0	2.32246995	0	-4.006827831	18.81156731	-88.29392242	1.0
79	0	2.32246995	0	-4.006827831	18.81156731	-88.29392242	1.0
80	0	2.32246995	0	-4.006827831	18.81156731	-88.29392242	1.0
[Head]
77	0	1.409579992	0.1818799973	-7.211381912	0.5221965909	-102.618782	1.0
78	0	1.409579992	0.1818799973	-7.211381912	0.5221965909	-102.618782	1.0
79	0	1.409579992	0.1818799973	-7.211381912	0.5221965909	-102.618782	1.0
80	0	1.409579992	0.1818799973	-7.211381912	0.5221965909	-102.618782	1.0
[LeftShoulder]
77	0.3668199778	1.946700096	-0.02662999928	-11.6132946	-11.23284245	-1.729960442	1.0
78	0.3668199778	1.946700096	-0.02662999928	-15.6065731	-12.29646587	2.164550304	1.0
79	0.3668199778	1.946700096	-0.02662999928	-15.51338863	-10.90516186	0.05233227462	1.0
80	0.3668199778	1.946700096	-0.02662999928	-18.61641884	-8.442042351	2.801995754	1.0
[LeftArm]
77	1.140689969	0	0	15.41932678	26.42253304	-65.2682724	1.0
78	1.140689969	0	0	18.81910515	26.66847229	-67.40900421	1.0
79	1.140689969	0	0	22.69851303	25.34830284	-68.34667969	1.0
80	1.140689969	0	0	25.99639511	25.88210487	-73.77587128	1.0
[LeftForeArm]
77	2.749800205	0	0	-10.85383224	-1.069131613	-5.089105129	1.0
78	2.749800205	0	0	-11.03213596	1.271686077	-4.445888996	1.0
79	2.749800205	0	0	-11.18179417	-0.3572345078	-4.993155956	1.0
80	2.749800205	0	0	-11.89676476	-4.02388382	-3.471339464	1.0
[LeftHand]
77	2.295179844	0	0	-10.84227657	1.334988236	5.526446342	1.0
78	2.295179844	0	0	-12.00569344	4.804580688	7.148693085	1.0
79	2.295179844	0	0	-10.88435459	8.166638374	4.38240099	1.0
80	2.295179844	0	0	-11.99864864	-0.1064915359	-2.557068348	1.0
[RightShoulder]
77	-0.3601199985	1.946700096	-0.02662999928	-9.702689171	7.181012154	176.9553986	1.0
78	-0.3601199985	1.946700096	-0.02662999928	-13.33608246	1.322959661	181.5075378	1.0
79	-0.3601199985	1.946700096	-0.02662999928	-11.85557842	4.126454353	177.6033936	1.0
80	-0.3601199985	1.946700096	-0.02662999928	-11.85259247	7.952928543	172.0799713	1.0
[RightArm]
77	-1.140689969	0	0	64.53984833	10.89639759	-101.187027	1.0
78	-1.140689969	0	0	65.23197937	3.989132881	-98.82473755	1.0
79	-1.140689969	0	0	62.3416214	2.526377439	-94.71618652	1.0
80	-1.140689969	0	0	58.88864136	1.743676543	-90.94300842	1.0
[RightForeArm]
77	-2.749800205	0	0	18.80095863	29.79250336	175.2616272	1.0
78	-2.749800205	0	0	18.80095863	29.79250336	175.2616272	1.0
79	-2.749800205	0	0	18.80095863	29.79250336	175.2616272	1.0
80	-2.749800205	0	0	18.80095863	29.79250336	175.2616272	1.0
[RightHand]
77	-2.295179844	0	0	-1.575100541	51.47705841	188.7361908	1.0
78	-2.295179844	0	0	-1.575100541	51.47705841	188.7361908	1.0
79	-2.295179844	0	0	-1.575100541	51.47705841	188.7361908	1.0
80	-2.295179844	0	0	-1.575100541	51.47705841	188.7361908	1.0
[LeftUpLeg]
77	0.9094099998	0	0	-13.00825214	9.888281822	88.22444916	1.0
78	0.9094099998	0	0	-4.085546017	-1.332767725	89.03643799	1.0
79	0.9094099998	0	0	-2.102967739	-0.2833688557	88.5868454	1.0
80	0.9094099998	0	0	-0.02890746295	-0.05783117563	87.63538361	1.0
[LeftLeg]
77	0	-4.498080254	0	7.313412189	0.9698693156	86.70975494	1.0
78	0	-4.498080254	0	0.5132116079	0.179115817	83.28075409	1.0
79	0	-4.498080254	0	-1.617262244	-0.1818637848	83.34030151	1.0
80	0	-4.498080254	0	-4.912051201	-0.7393339872	82.94470215	1.0
[LeftFoot]
77	0	-3.729400158	0	-81.13461304	118.8566589	-48.93141174	1.0
78	0	-3.729400158	0	-57.54986954	122.8289261	-27.00543213	1.0
79	0	-3.729400158	0	-59.9171524	122.0811157	-28.82387543	1.0
80	0	-3.729400158	0	-63.61006927	124.1355286	-30.22002792	1.0
[LeftToeBase]
77	0	-0.5911099911	1.364109993	0	0	0	1.0
78	0	-0.5911099911	1.364109993	0	0	0	1.0
79	0	-0.5911099911	1.364109993	0	0	0	1.0
80	0	-0.5911099911	1.364109993	0	0	0	1.0
[RightUpLeg]
77	-0.9094099998	0	0	15.36542797	-2.280281305	92.90703583	1.0
78	-0.9094099998	0	0	17.35843849	-5.239719391	90.71595764	1.0
79	-0.9094099998	0	0	11.41779709	-7.895441055	89.18214417	1.0
80	-0.9094099998	0	0	5.229914665	-0.7575902939	88.92845917	1.0
[RightLeg]
77	0	-4.498080254	0	18.3359127	-4.714477062	86.77042389	1.0
78	0	-4.498080254	0	25.17742538	-16.11020279	78.7425766	1.0
79	0	-4.498080254	0	35.97752762	0.4423105717	84.95603943	1.0
80	0	-4.498080254	0	46.672966	-7.865086079	84.61627197	1.0
[RightFoot]
77	0	-3.729400158	0	59.45049286	59.65689087	110.0921021	1.0
78	0	-3.729400158	0	91.0623703	49.57190704	129.7234497	1.0
79	0	-3.729400158	0	66.31793976	52.72312546	95.43815613	1.0
80	0	-3.729400158	0	65.83485413	49.0595665	90.44876099	1.0
[RightToeBase]
77	0	-0.5911099911	1.364109993	0	0	0	1.0
78	0	-0.5911099911	1.364109993	0	0	0	1.0
79	0	-0.5911099911	1.364109993	0	0	0	1.0
80	0	-0.5911099911	1.364109993	0	0	0	1.0
[EndOfFile]
